HIERARCHY
ROOT Hips
{
  OFFSET 3.13124 94.3669 -3.18751
  CHANNELS  6 Xposition Yposition Zposition Zrotation Xrotation Yrotation
  JOINT LeftUpLeg
  {
    OFFSET 8.64259 1.95398 -2.38835
    CHANNELS 3 Zrotation Xrotation Yrotation
    JOINT LeftLeg
    {
      OFFSET 43.7702 0 0
      CHANNELS 3 Zrotation Xrotation Yrotation
      JOINT LeftFoot
      {
        OFFSET 40.6238 0 0
        CHANNELS 3 Zrotation Xrotation Yrotation
        JOINT LeftToeBase
        {
          OFFSET 12.7242 0 0
          CHANNELS 3 Zrotation Xrotation Yrotation
          End Site
          {
            OFFSET 0 0 0
          }
        }
      }
    }
  }
  JOINT RightUpLeg
  {
    OFFSET -8.2249 1.95398 -2.59336
    CHANNELS 3 Zrotation Xrotation Yrotation
    JOINT RightLeg
    {
      OFFSET 43.5653 0 0
      CHANNELS 3 Zrotation Xrotation Yrotation
      JOINT RightFoot
      {
        OFFSET 40.6238 0 0
        CHANNELS 3 Zrotation Xrotation Yrotation
        JOINT RightToeBase
        {
          OFFSET 12.7242 0 0
          CHANNELS 3 Zrotation Xrotation Yrotation
          End Site
          {
            OFFSET 0 0 0
          }
        }
      }
    }
  }
  JOINT Spine
  {
    OFFSET 0.165834 0.87714 6.61349
    CHANNELS 3 Zrotation Xrotation Yrotation
    JOINT Spine1
    {
      OFFSET 7.38962 1.71661e-005 0
      CHANNELS 3 Zrotation Xrotation Yrotation
      JOINT Spine2
      {
        OFFSET 11.9445 1.14441e-005 0
        CHANNELS 3 Zrotation Xrotation Yrotation
        JOINT Spine3
        {
          OFFSET 14.7254 4.19617e-005 0
          CHANNELS 3 Zrotation Xrotation Yrotation
          JOINT Spine4
          {
            OFFSET 10.9679 0 0
            CHANNELS 3 Zrotation Xrotation Yrotation
            JOINT RightShoulder
            {
              OFFSET 2.46616 -1.6653 3.69651
              CHANNELS 3 Zrotation Xrotation Yrotation
              JOINT RightArm
              {
                OFFSET 13.0012 0 0
                CHANNELS 3 Zrotation Xrotation Yrotation
                JOINT RightForeArm
                {
                  OFFSET 28.7848 1.52588e-005 0
                  CHANNELS 3 Zrotation Xrotation Yrotation
                  JOINT RightHand
                  {
                    OFFSET 26.5688 1.52588e-005 0
                    CHANNELS 3 Zrotation Xrotation Yrotation
                    End Site
                    {
                      OFFSET 0 0 0
                    }
                  }
                }
              }
            }
            JOINT LeftShoulder
            {
              OFFSET 2.38034 -1.29275 -3.75231
              CHANNELS 3 Zrotation Xrotation Yrotation
              JOINT LeftArm
              {
                OFFSET 16.3182 6.10352e-005 0
                CHANNELS 3 Zrotation Xrotation Yrotation
                JOINT LeftForeArm
                {
                  OFFSET 27.0901 0 0
                  CHANNELS 3 Zrotation Xrotation Yrotation
                  JOINT LeftHand
                  {
                    OFFSET 24.5451 1.52588e-005 0
                    CHANNELS 3 Zrotation Xrotation Yrotation
                    End Site
                    {
                      OFFSET 0 0 0
                    }
                  }
                }
              }
            }
            JOINT Neck
            {
              OFFSET 5.0226 -0.0266342 0
              CHANNELS 3 Zrotation Xrotation Yrotation
              JOINT Head
              {
                OFFSET 6.69363 2.86102e-005 0
                CHANNELS 3 Zrotation Xrotation Yrotation
                End Site
                {
                  OFFSET 0 0 0
                }
              }
            }
          }
        }
      }
    }
  }
}
MOTION
Frames:	18
Frame Time:	0.0333333
-26.6464 96.1632 -132.437 -57.4019 -23.5465 -74.8114 -172.086 18.2008 109.561 -3.12603 -4.84978 6.78175 -4.95482 2.47303 1.05436 28.7808 5.85017e-006 9.49327e-006 178.025 54.2685 94.2917 -37.4031 -27.9975 -1.98923 56.9472 -15.5257 -9.8041 28.7808 1.28587e-005 2.52732e-005 -2.41866 9.64773 -89.6623 7.84583 -5.58884 4.66212 -3.82231 -5.37849 4.90348 -26.4254 -6.73045 2.76365 -6.41274 -6.73043 2.76367 106.432 -38.4694 -74.3034 64.5219 2.31387 -14.2527 3.67596 -0.684449 -14.054 -5.37983 -0.320002 -0.0162416 -88.1401 -27.829 76.2037 -44.9742 -10.4903 -41.7061 33.3998 78.0535 -22.6695 10.1481 1.74969 12.2913 11.1782 11.821 -22.9226 -29.4278 4.49132 49.9334 
-27.1533 97.1657 -131.926 -59.1644 -24.9595 -76.1172 -172.587 17.6087 107.825 -2.76944 -7.98796 6.7168 -1.19827 4.04897 4.08403 28.7808 5.85017e-006 9.49327e-006 178.686 50.0574 92.6161 -33.9909 -27.7402 -1.9099 56.1776 -15.5087 -9.93031 28.7808 1.28587e-005 2.52732e-005 -2.67035 9.55452 -89.4135 8.00793 -5.75764 4.44961 -3.65875 -5.55645 4.69872 -26.2723 -6.82758 2.50934 -6.25969 -6.82757 2.50934 105.445 -39.3455 -76.1573 63.687 3.88465 -14.5128 2.45754 -0.468392 -13.2191 -5.37983 -0.320002 -0.0162416 -87.0693 -25.8702 77.754 -46.6719 -4.74207 -42.5706 34.0786 78.4126 -25.3214 9.19159 1.54629 11.6909 7.18844 11.71 -20.0312 -27.0769 5.08641 46.0662 
-27.6044 98.0394 -131.404 -60.5736 -26.8095 -77.1425 -173.308 17.6256 106.051 -2.08689 -14.8524 6.27972 1.26486 5.84639 7.18986 28.7808 5.85017e-006 9.49327e-006 179.078 46.2807 91.0704 -31.0102 -26.6615 -1.7558 55.6885 -15.5505 -10.0606 28.7808 1.28587e-005 2.52732e-005 -2.80684 9.36128 -89.187 8.35098 -5.7216 4.11735 -3.31469 -5.53504 4.36528 -25.9321 -6.69346 2.2029 -5.91948 -6.69346 2.20288 104.047 -40.0378 -78.6863 62.5299 6.13877 -13.7968 1.51774 -0.355209 -12.6704 -5.37983 -0.320002 -0.0162416 -85.2483 -23.433 80.863 -49.487 3.45944 -45.2449 69.435 84.6344 -61.4758 7.32583 1.26877 11.6729 1.63667 11.0898 -16.71 -24.3163 5.16737 41.6165 
-28.0485 98.7811 -130.862 -61.6868 -28.907 -78.0048 -174.065 17.7648 104.048 -1.72033 -20.6072 5.69828 5.6758 7.86575 10.0495 28.7808 5.85017e-006 9.49327e-006 179.276 42.7945 89.5861 -28.2056 -25.5795 -1.60848 55.2493 -15.8948 -10.3927 28.7808 1.28587e-005 2.52732e-005 -2.73265 9.1167 -89.1741 8.78539 -5.39347 3.45314 -2.87958 -5.23636 3.68737 -25.4933 -6.18111 1.66829 -5.48068 -6.18112 1.66829 103.681 -39.6072 -79.3216 61.287 8.40406 -13.0985 0.251891 -0.153168 -11.5099 -5.37983 -0.320002 -0.0162416 -84.6843 -21.0377 81.456 -50.9413 11.3182 -47.398 117.336 84.3926 -110.248 11.4134 0.888919 3.56628 -4.5277 9.94168 -12.6411 -21.0853 4.717 37.5852 
-28.5731 99.4532 -130.277 -62.8158 -31.3955 -78.9353 -174.726 17.7448 101.551 -1.51868 -24.2756 4.89357 11.4977 9.58694 11.678 28.7808 5.85017e-006 9.49327e-006 179.376 40.1825 88.0201 -27.3748 -25.1429 -1.52478 53.3602 -17.7312 -12.0576 28.7808 1.28587e-005 2.52732e-005 -2.67301 8.84487 -89.0858 9.26755 -5.00695 2.72427 -2.39709 -4.88225 2.94228 -25.0044 -5.5936 1.08981 -4.99177 -5.59361 1.0898 102.593 -38.857 -81.2549 60.2613 11.7026 -12.0146 -1.44212 -0.0036029 -10.3168 -5.37983 -0.320002 -0.0162416 -83.8018 -18.3723 82.7619 -50.1476 19.4623 -50.3914 144.068 76.16 -138.855 6.55276 -0.0504345 -3.75874 -10.8068 8.30873 -7.52675 -17.9577 4.2322 31.2223 
-29.042 99.958 -129.534 -64.2797 -34.3107 -79.6837 -174.963 18.014 98.8091 -3.37499 -23.0005 3.22439 20.7058 12.1755 13.376 28.7808 5.85017e-006 9.49327e-006 179.314 36.5475 86.7837 -25.4651 -22.3972 -1.3342 54.1372 -17.4645 -11.7304 28.7808 1.28587e-005 2.52732e-005 -2.48824 8.5929 -89.1679 9.73198 -4.56924 2.02589 -1.93283 -4.47567 2.22529 -24.5309 -4.96642 0.555989 -4.51823 -4.9664 0.555995 101.339 -39.0296 -83.5109 58.1572 14.8355 -10.4135 -2.66848 0.0994067 -9.43202 -5.37983 -0.320002 -0.0162416 -83.3115 -16.1204 83.3467 -43.5074 26.0691 -55.5099 128.696 71.5517 -130.424 4.90143 -0.235248 -6.65188 -16.6146 6.1383 -4.05437 -15.6033 3.08964 25.6543 
-29.4802 100.257 -128.732 -65.8065 -37.9087 -80.2255 -175.872 18.5088 96.3579 -5.93653 -26.9825 2.40051 29.1953 10.3498 9.74244 28.7808 5.85017e-006 9.49327e-006 179.214 33.6842 85.7632 -25.5969 -18.687 -1.12682 54.7395 -17.8741 -11.9073 28.7808 1.28587e-005 2.52732e-005 -2.18297 8.35522 -89.5757 10.1827 -4.12274 1.06339 -1.48229 -4.07193 1.24408 -24.0701 -4.25138 -0.227056 -4.05742 -4.2514 -0.227065 100.184 -38.1117 -85.6358 56.4208 18.1505 -9.01844 -4.37454 0.204327 -8.16872 -5.37983 -0.320002 -0.0162416 -82.636 -15.2145 84.7839 -31.6533 30.8539 -63.7883 99.2473 66.8818 -110.614 4.28909 -0.401068 -9.42514 -21.6838 3.722 0.434464 -14.2192 1.78486 18.924 
-30.0117 100.551 -127.909 -67.4767 -41.5016 -80.5118 -176.314 17.4212 94.1434 -6.52858 -26.4243 1.86028 35.2536 8.46892 7.09906 28.7808 5.85017e-006 9.49327e-006 179.067 30.4907 85.3523 -25.2927 -14.3945 -0.890003 55.3777 -17.442 -11.4932 28.7808 1.28587e-005 2.52732e-005 -1.83019 8.11925 -89.9962 10.6396 -3.61556 0.211707 -1.02634 -3.60273 0.37082 -23.6003 -3.51181 -0.886089 -3.58767 -3.51179 -0.886082 98.9389 -37.7837 -87.929 54.4727 20.9977 -7.68442 -5.70173 0.226409 -7.2032 -5.37983 -0.320002 -0.0162416 -81.803 -12.6654 86.322 -19.8156 33.1313 -72.4585 75.7845 59.9637 -94.8817 10.5863 -1.39733 -15.8481 -25.7056 1.29777 2.73563 -14.1025 0.241161 12.6307 
-30.6445 100.774 -126.933 -68.9317 -45.8609 -80.7181 -176.507 16.6301 91.8915 -8.2752 -22.8478 1.16538 40.11 4.3613 2.97638 28.7808 5.85017e-006 9.49327e-006 178.942 27.4677 84.742 -25.6853 -9.69387 -0.638723 56.6623 -16.3611 -10.5337 28.7808 1.28587e-005 2.52732e-005 -1.56103 7.85824 -90.4164 11.1473 -3.27751 -0.659549 -0.519596 -3.30339 -0.514519 -23.0812 -2.92769 -1.61484 -3.06856 -2.92769 -1.61484 97.4377 -37.0125 -90.7646 52.0607 23.3566 -5.94626 -6.85504 0.270173 -6.48283 -5.37983 -0.320002 -0.0162416 -80.8097 -10.1453 88.4721 -6.64557 32.8677 -81.6904 61.7478 48.1866 -88.8438 3.48275 -0.453911 -11.5999 -28.668 -0.784372 4.51889 -14.8722 -1.13043 7.47531 
-31.3106 100.937 -125.712 -70.414 -51.3235 -80.9886 -176.786 15.7598 89.1889 -10.6838 -16.807 0.674034 43.8321 3.09247 1.81835 28.7808 5.85017e-006 9.49327e-006 178.976 25.1344 83.9961 -28.292 -4.30616 -0.369112 57.6306 -14.5219 -9.16914 28.7808 1.28587e-005 2.52732e-005 -1.34282 7.63049 -90.8175 11.5861 -3.02789 -1.59709 -0.0821255 -3.09522 -1.4622 -22.6288 -2.40802 -2.43339 -2.61615 -2.408 -2.43339 96.4356 -35.8422 -92.7923 49.9095 25.4488 -4.22232 -7.76876 0.258506 -5.77943 -5.37983 -0.320002 -0.0162416 -79.9078 -8.53734 90.7291 5.3151 29.6785 -89.3951 52.3505 38.0653 -85.9139 5.2541 -0.714988 -13.7123 -30.4015 -3.0282 6.46742 -15.6193 -2.47573 1.42998 
-31.5366 101.587 -124.856 -72.3017 -53.1669 -80.5641 -176.722 14.9672 88.4846 -12.5006 -19.0624 -0.356492 44.1321 4.45102 2.94377 28.7808 5.85017e-006 9.49327e-006 179.033 22.6411 85.3732 -27.4207 -2.27563 -0.250731 54.6298 -12.819 -8.46612 28.7808 1.28587e-005 2.52732e-005 -0.620269 7.32378 -91.3611 12.1913 -1.86138 -2.84944 0.518745 -1.98491 -2.76483 -21.9949 -0.919459 -3.27668 -1.98224 -0.919477 -3.27669 95.529 -34.6141 -94.712 46.7482 28.1702 -1.25965 -8.76392 0.276915 -5.23724 -5.37983 -0.320002 -0.0162416 -79.0091 -8.54079 93.3525 15.9365 25.0974 -94.6182 46.6765 28.1834 -85.8314 6.27613 -1.06177 -17.198 -32.0327 -5.37742 8.1279 -16.6028 -3.88474 -4.38479 
-32.0125 102.153 -123.679 -74.4029 -59.6112 -81.2995 -176.915 13.4278 87.1579 -13.8244 -20.2476 -0.684192 41.3607 3.73233 2.39584 28.7808 5.85017e-006 9.49327e-006 179.137 19.8457 85.1099 -29.407 2.31444 -0.0173876 52.9826 -10.3531 -6.95513 28.7808 1.28587e-005 2.52732e-005 -0.490884 7.03314 -91.423 12.7655 -1.66001 -3.43115 1.09126 -1.8093 -3.35489 -21.4091 -0.552887 -3.77092 -1.39644 -0.552904 -3.77093 94.5025 -35.2653 -96.5179 43.9827 30.5319 1.15786 -10.0872 0.337804 -4.668 -5.37983 -0.320002 -0.0162416 -78.5654 -6.05628 94.4537 23.1052 20.8003 -96.3869 43.2365 20.2317 -86.478 9.5704 -1.28511 -15.7323 -33.7407 -6.47292 5.9492 -17.3439 -4.83706 -7.36279 
-32.4103 102.804 -122.609 -76.253 -66.5611 -82.0435 -176.794 10.5152 86.4769 -11.8741 -18.6467 -1.36847 39.1604 5.2854 3.83694 28.7808 5.85017e-006 9.49327e-006 179.114 17.5379 84.9909 -31.4542 5.97842 0.172079 50.043 -7.57282 -5.2014 28.7808 1.28587e-005 2.52732e-005 -0.368972 6.77445 -91.7441 13.2821 -1.60653 -3.67792 1.60717 -1.76674 -3.60378 -20.8873 -0.427879 -3.99019 -0.87466 -0.427902 -3.99021 93.899 -36.4952 -97.3705 41.9863 32.0121 2.26118 -11.1764 0.268898 -3.92798 -5.37983 -0.320002 -0.0162416 -78.0744 -3.59247 95.84 27.543 17.56 -95.9958 40.631 13.9469 -86.4972 10.9554 -1.73814 -18.3935 -34.0339 -6.80871 3.11946 -18.3036 -5.21353 -9.8727 
-32.7919 103.634 -121.603 -77.2498 -74.8629 -82.3866 -176.53 9.76841 86.1921 -12.3407 -12.2869 -0.93866 32.608 4.11514 2.94029 28.7808 5.85017e-006 9.49327e-006 179.109 15.196 84.899 -32.7332 10.1359 0.410639 45.7715 -4.71404 -3.2258 28.7808 1.28587e-005 2.52732e-005 -0.355736 6.47051 -91.9655 13.8871 -1.69635 -3.86776 2.21176 -1.8648 -3.78951 -20.2784 -0.456653 -4.19817 -0.265788 -0.456659 -4.19815 93.7646 -36.5299 -97.6096 40.826 32.8629 3.67943 -11.2739 0.248853 -3.75947 -5.37983 -0.320002 -0.0162416 -77.4459 -2.74592 97.9143 30.3598 15.5758 -95.3763 38.8956 9.84389 -86.519 11.8865 -2.36236 -22.4082 -33.6927 -7.10317 1.292 -18.9481 -5.29799 -12.9899 
-33.1203 104.436 -120.473 -76.7712 -83.9437 -81.1427 -176.35 9.07587 86.3331 -12.0019 -2.63141 0.37411 25.537 3.70064 2.65309 28.7808 5.85017e-006 9.49327e-006 179.149 12.7187 85.4155 -33.2877 14.9676 0.724274 40.3775 -1.7224 -0.798053 28.7808 1.28587e-005 2.52732e-005 -0.346386 6.10785 -92.2326 14.6114 -1.7802 -3.96409 2.93584 -1.9528 -3.88207 -19.5522 -0.507776 -4.31517 0.460387 -0.507783 -4.31517 94.0661 -36.5379 -97.0534 39.9318 33.7998 5.1444 -11.6233 0.205154 -3.35308 -5.37983 -0.320002 -0.0162416 -77.1584 -2.27314 98.8914 31.5636 14.8322 -94.5943 41.2488 7.12539 -86.4654 9.47989 -2.13163 -23.8387 -32.8958 -7.19141 -0.814869 -19.7621 -5.34561 -14.7098 
-33.4288 104.969 -119.173 106.816 -86.6088 102.653 -175.858 7.72861 86.5413 -11.7951 9.30629 1.42589 18.9203 2.4324 1.17043 28.7808 5.85017e-006 9.49327e-006 179.25 10.814 85.868 -35.2131 17.3238 0.864985 33.171 -0.696191 0.284209 28.7808 1.28587e-005 2.52732e-005 -0.335861 5.75704 -92.2755 15.3169 -1.76378 -3.84108 3.64168 -1.93101 -3.75988 -18.8495 -0.52899 -4.19296 1.1632 -0.528989 -4.19295 94.7908 -35.8439 -95.8593 39.7876 33.9313 6.72511 -11.5912 0.173914 -2.87848 -5.37983 -0.320002 -0.0162416 -76.9102 -3.45755 99.6542 33.7465 14.159 -93.8316 40.8997 4.93186 -86.8279 10.8927 -2.34157 -23.5478 -31.8148 -7.84877 -1.50608 -20.8863 -5.53854 -17.2348 
-33.6054 105.305 -118.032 101.36 -78.7946 97.3542 -175.522 7.02265 86.8169 -10.7514 20.1428 2.48083 12.355 0.351857 -1.8486 28.7808 5.85017e-006 9.49327e-006 179.294 10.4316 86.4447 -36.5007 15.1914 0.704842 24.881 -0.418038 0.849212 28.7808 1.28587e-005 2.52732e-005 -0.182212 5.43383 -92.1978 15.9737 -1.40169 -3.5027 4.29899 -1.5544 -3.43773 -18.1989 -0.285017 -3.76166 1.81378 -0.28502 -3.76166 95.2115 -36.084 -95.0297 40.1642 34.3033 7.50865 -11.6949 0.185577 -3.11908 -5.37983 -0.320002 -0.0162416 -76.5544 -3.8978 100.782 35.9937 13.1994 -92.8355 38.4256 2.81095 -87.1745 13.3136 -2.83809 -24.118 -29.9163 -8.46608 -2.09542 -21.5517 -5.76344 -19.1564 
-33.6815 105.426 -116.982 98.7775 -72.5633 94.9868 -175.291 6.92717 87.0155 -9.98788 26.9243 3.08532 7.7893 -0.929443 -4.16891 28.7808 5.85017e-006 9.49327e-006 179.236 10.5144 87.0532 -36.3387 8.05447 0.240827 16.8143 -0.64343 0.895505 28.7808 1.28587e-005 2.52732e-005 0.119723 5.11204 -91.9485 16.6285 -0.701164 -3.07343 4.95423 -0.835678 -3.03965 -17.5517 0.254454 -3.14206 2.4609 0.254454 -3.14204 95.7285 -36.2264 -94.0441 41.3697 34.3122 7.90005 -11.4127 0.165379 -3.27171 -5.37983 -0.320002 -0.0162416 -76.2417 -4.50516 101.725 37.8758 12.8221 -90.8378 36.2929 0.685063 -87.2391 13.6829 -3.31441 -26.9436 -27.8228 -9.15214 -2.3853 -22.2007 -6.0353 -20.7529 
